<svg width="48" height="48" viewBox="0 0 48 48" fill="none" xmlns="http://www.w3.org/2000/svg">
<rect width="48" height="48" fill="white"/>
<path d="M33.6482 35.2748C34.1869 35.9593 34.1869 36.5929 33.4686 36.9134L29.3384 38.734C28.2179 39.2365 27.9449 38.9598 27.5427 38.4609L22.292 31.6334L17.0413 38.4609C16.639 38.9634 16.3661 39.2329 15.2455 38.734L11.1153 36.9134C10.397 36.5929 10.397 35.9593 10.9358 35.2748L18.0289 26.0331L12.6237 19.8246C11.9486 18.958 12.1748 18.5938 12.8931 18.186L16.6246 15.2074C17.2065 14.8869 17.6123 14.8432 18.1043 15.4331L22.292 20.4764L31.6262 9.45772C32.1218 8.86782 32.5241 8.91152 33.1059 9.23195L36.7764 12.3599C37.4946 12.7677 37.7173 13.1318 37.0457 13.9985L26.555 26.0331L33.6482 35.2748Z" fill="#222222"/>
<path d="M17.9395 26.0853L12.5095 19.8578C11.8312 18.9885 12.0585 18.6232 12.7801 18.2142L16.5288 15.2264C17.1133 14.905 17.521 14.8612 18.0153 15.4529L22.2222 20.5116L31.5994 9.45912C32.0973 8.86741 32.5014 8.91124 33.0859 9.23266L36.7733 12.3702C37.4949 12.7792 37.7186 13.1445 37.0439 14.0138L27.3239 25.1466L26.375 26.2387C25.8952 26.761 25.621 26.9436 25.2241 27.3272L24.7154 27.7508C23.5644 28.6019 23.0376 28.6165 22.0021 28.653C21.1723 28.6822 20.2883 28.4193 19.5162 27.6267" fill="#007F87"/>
</svg>
